<?xml version="1.0" standalone="no"?>
<!DOCTYPE svg PUBLIC "-//W3C//DTD SVG 20010904//EN"
 "http://www.w3.org/TR/2001/REC-SVG-20010904/DTD/svg10.dtd">
<svg version="1.0" xmlns="http://www.w3.org/2000/svg"
 width="500.000000pt" height="250.000000pt" viewBox="0 0 500.000000 250.000000"
 preserveAspectRatio="xMidYMid meet">

<g transform="translate(0.000000,250.000000) scale(0.100000,-0.100000)"
fill="#000000" stroke="none">
<path d="M2440 1923 c-363 -13 -779 -133 -987 -286 -150 -111 -235 -283 -203
-410 34 -137 128 -254 289 -362 254 -169 575 -259 997 -281 567 -28 1153 185
1305 476 19 37 23 60 23 125 -1 47 -7 93 -15 110 -42 91 -72 121 -235 238 -90
64 -168 117 -173 117 -16 0 -945 -331 -954 -340 -9 -8 222 -180 241 -180 6 0
112 36 237 80 125 44 237 80 249 80 27 0 70 -43 90 -91 45 -108 -103 -238
-344 -301 -121 -32 -379 -31 -528 0 -266 58 -480 182 -553 323 -30 58 -30 148
-1 205 43 84 155 151 327 195 77 20 115 23 265 24 96 0 205 -4 243 -9 66 -8
67 -8 67 15 1 13 14 73 30 134 15 60 26 113 24 116 -4 7 -109 15 -259 22 -33
1 -94 1 -135 0z"/>
</g>
</svg>
